<?xml version="1.0" standalone="no"?>
<!DOCTYPE svg PUBLIC "-//W3C//DTD SVG 20010904//EN"
 "http://www.w3.org/TR/2001/REC-SVG-20010904/DTD/svg10.dtd">
<svg version="1.0" xmlns="http://www.w3.org/2000/svg"
 width="1592.000000pt" height="1592.000000pt" viewBox="0 0 1592.000000 1592.000000"
 preserveAspectRatio="xMidYMid meet">
<metadata>
Created by potrace 1.14, written by Peter Selinger 2001-2017
</metadata>
<g transform="translate(0.000000,1592.000000) scale(0.100000,-0.100000)"
fill="#000000" stroke="none">
<path d="M7731 12639 c-641 -77 -1165 -566 -1285 -1198 -9 -46 -16 -97 -16
-115 0 -17 -7 -42 -16 -55 -15 -20 -16 -42 -10 -152 18 -357 132 -650 359
-917 39 -46 80 -88 91 -92 12 -5 50 -34 86 -65 167 -144 387 -257 618 -315
l42 -11 0 -2374 0 -2375 -885 0 -885 0 0 899 0 899 36 7 c67 12 218 65 310
109 544 258 882 844 833 1443 -54 670 -523 1198 -1189 1340 -123 26 -469 26
-590 -1 -307 -67 -538 -192 -756 -410 -220 -220 -348 -462 -411 -771 -27 -136
-24 -425 5 -562 41 -189 120 -377 221 -526 56 -83 111 -153 111 -142 0 4 49
-39 108 -97 121 -116 250 -208 386 -272 84 -41 237 -95 314 -111 l32 -7 0
-899 0 -899 -445 0 -445 0 2 -297 3 -298 3543 -3 3542 -2 0 300 0 300 -440 0
-440 0 0 1194 0 1194 53 12 c87 21 217 70 312 117 251 126 478 340 615 580
284 496 262 1093 -58 1573 -81 121 -272 310 -398 393 -608 402 -1402 312
-1898 -215 -196 -207 -330 -474 -382 -758 -24 -131 -24 -381 1 -510 89 -473
380 -859 807 -1070 65 -32 168 -72 232 -91 l116 -33 0 -1193 0 -1193 -880 0
-880 0 0 2375 0 2374 43 11 c266 69 500 199 688 383 316 311 469 717 438 1168
-17 257 -103 504 -252 724 -79 117 -265 303 -382 382 -171 116 -387 204 -580
237 -117 21 -318 27 -424 15z m355 -608 c97 -20 229 -76 311 -132 92 -63 257
-238 240 -255 -3 -3 14 -46 38 -95 25 -51 53 -131 66 -185 19 -83 21 -111 15
-237 -10 -220 -11 -228 -36 -287 -104 -247 -295 -424 -548 -511 -95 -33 -101
-33 -267 -34 -197 0 -247 10 -390 80 -182 88 -317 222 -406 400 -68 137 -91
230 -92 380 -2 188 45 350 146 502 51 76 159 188 227 234 106 72 254 133 370
152 70 12 241 5 326 -12z m2312 -2351 c169 -28 337 -109 459 -224 90 -84 149
-165 202 -277 59 -123 73 -184 78 -344 6 -176 -14 -273 -87 -420 -90 -180
-218 -309 -395 -396 -146 -72 -230 -91 -395 -91 -162 0 -249 19 -386 87 -504
248 -653 889 -309 1334 191 249 524 381 833 331z m-4723 -594 c107 -17 164
-35 265 -86 215 -108 387 -321 452 -557 29 -107 31 -335 4 -438 -82 -315 -328
-563 -641 -646 -115 -30 -307 -31 -427 -1 -220 54 -403 185 -529 376 -199 302
-196 681 9 983 66 98 207 223 308 275 191 99 352 126 559 94z"/>
<path d="M7415 3815 c-403 -63 -752 -310 -944 -665 -41 -77 -111 -271 -111
-308 0 -12 -8 -25 -17 -30 -25 -15 -31 -272 -9 -397 56 -327 253 -624 538
-812 333 -219 714 -278 1093 -168 96 28 250 97 327 146 28 19 52 28 60 23 7
-4 57 -46 112 -93 54 -47 104 -86 111 -86 6 0 76 74 155 164 l143 165 -64 55
c-146 127 -146 127 -130 153 88 139 127 226 160 350 114 438 -31 888 -387
1199 -281 246 -675 361 -1037 304z m320 -540 c192 -49 354 -184 445 -370 56
-114 73 -197 67 -325 -4 -99 -28 -213 -47 -225 -5 -3 -58 38 -119 91 -73 63
-117 94 -130 92 -16 -2 -291 -307 -291 -322 0 -2 54 -52 121 -110 l120 -106
-53 -25 c-178 -83 -400 -68 -575 37 -76 45 -186 157 -233 237 -21 36 -51 102
-67 146 -25 71 -28 94 -28 210 0 110 4 141 23 200 79 235 258 409 482 469 73
19 211 20 285 1z"/>
<path d="M5240 3515 c0 -177 -4 -275 -10 -275 -7 0 -10 -308 -10 -904 0 -815
2 -904 16 -910 20 -8 558 -8 578 0 14 6 16 119 16 1185 l0 1179 -295 0 -295 0
0 -275z"/>
<path d="M9921 3768 c-134 -348 -364 -916 -374 -923 -18 -13 -569 -1404 -561
-1416 6 -10 632 -13 657 -3 9 3 44 76 78 162 34 86 66 163 72 170 7 9 112 12
462 12 l453 0 67 -167 c37 -93 72 -171 78 -175 19 -12 655 -10 662 2 5 8 -355
929 -874 2235 l-47 120 -332 3 -332 2 -9 -22z m473 -1204 c69 -176 126 -324
126 -327 0 -4 -121 -7 -270 -7 -148 0 -270 2 -270 4 0 6 261 669 268 680 3 5
9 1 12 -10 4 -10 64 -163 134 -340z"/>
</g>
</svg>
